<?xml version="1.0" standalone="no"?>
<!DOCTYPE svg PUBLIC "-//W3C//DTD SVG 20010904//EN"
 "http://www.w3.org/TR/2001/REC-SVG-20010904/DTD/svg10.dtd">
<svg version="1.0" xmlns="http://www.w3.org/2000/svg"
 width="980.000000pt" height="980.000000pt" viewBox="0 0 980.000000 980.000000"
 preserveAspectRatio="xMidYMid meet">

<g transform="translate(0.000000,980.000000) scale(0.100000,-0.100000)"
fill="#000000" stroke="none">
<path d="M3691 9790 c-199 -10 -291 -22 -481 -60 -641 -129 -1222 -399 -1734
-808 -153 -121 -475 -442 -591 -590 -468 -590 -746 -1234 -844 -1957 -113
-823 10 -1589 370 -2308 337 -674 830 -1216 1474 -1622 217 -137 542 -290 810
-382 811 -277 1711 -282 2519 -12 238 80 423 161 725 318 l173 91 977 -972
c537 -535 1046 -1038 1131 -1117 292 -271 397 -342 541 -363 98 -14 381 -2
451 19 256 75 532 371 577 617 17 92 14 380 -4 451 -48 183 -101 241 -1397
1540 l-1057 1060 46 70 c53 83 198 375 278 564 208 491 307 1030 292 1596 -17
632 -147 1147 -431 1710 -118 233 -194 357 -329 537 -512 685 -1191 1180
-1967 1435 -240 79 -583 152 -800 172 -159 15 -545 20 -729 11z m644 -840
c167 -11 254 -26 430 -75 842 -235 1510 -741 1930 -1459 132 -225 250 -510
324 -781 74 -268 92 -429 92 -805 0 -384 -21 -554 -101 -841 -240 -847 -804
-1542 -1585 -1955 -268 -141 -629 -266 -895 -308 -243 -39 -741 -44 -1028 -10
-219 25 -464 92 -707 191 -697 286 -1297 839 -1630 1504 -142 283 -250 608
-289 874 -37 250 -48 719 -21 946 61 522 272 1044 595 1474 400 531 942 920
1559 1119 154 50 367 101 476 115 50 6 101 13 115 15 56 8 595 5 735 -4z"/>
<path d="M4385 7833 c-37 -87 -249 -717 -478 -1418 -572 -1751 -800 -2451
-801 -2464 0 -8 17 -25 40 -38 38 -21 335 -125 341 -120 4 5 219 661 711 2177
580 1785 576 1770 566 1780 -9 7 -342 120 -356 120 -4 0 -15 -17 -23 -37z"/>
<path d="M5166 6808 c4 -211 10 -317 18 -324 6 -6 162 -97 347 -202 345 -196
759 -439 759 -447 0 -5 -218 -135 -530 -315 -261 -151 -524 -308 -567 -339
-22 -16 -22 -18 -23 -313 0 -177 4 -298 9 -298 9 0 206 112 1156 660 165 95
306 177 313 182 9 8 12 105 12 424 l0 413 -27 19 c-16 10 -336 196 -713 411
-377 216 -702 404 -723 417 l-37 25 6 -313z"/>
<path d="M2425 6952 c-644 -368 -1172 -676 -1195 -699 -25 -23 -25 -25 -28
-231 -2 -114 -1 -297 3 -407 l7 -200 740 -424 c406 -233 741 -421 744 -419 2
3 7 133 11 290 l6 286 -25 24 c-29 26 -269 171 -568 343 -256 147 -540 315
-540 320 0 4 433 259 695 410 331 191 405 237 417 258 16 28 21 265 11 457
l-8 146 -270 -154z"/>
</g>
</svg>
